<svg width="19" height="19" viewBox="0 0 19 19" fill="none" xmlns="http://www.w3.org/2000/svg">
<path fill-rule="evenodd" clip-rule="evenodd" d="M5.77173 4.59863C5.77173 3.77363 6.44673 3.09863 7.27173 3.09863H15.5217C15.9196 3.09863 16.3011 3.25667 16.5824 3.53797C16.8637 3.81928 17.0217 4.20081 17.0217 4.59863V9.84863C17.0217 10.2465 16.8637 10.628 16.5824 10.9093C16.3011 11.1906 15.9196 11.3486 15.5217 11.3486H14.0217V8.34863C14.0217 7.7519 13.7847 7.1796 13.3627 6.75764C12.9408 6.33569 12.3685 6.09863 11.7717 6.09863H5.77173V4.59863Z" fill="#333333"/>
<path fill-rule="evenodd" clip-rule="evenodd" d="M2.02173 8.34863C2.02173 7.52363 2.69673 6.84863 3.52173 6.84863H11.7717C12.1696 6.84863 12.5511 7.00667 12.8324 7.28797C13.1137 7.56928 13.2717 7.95081 13.2717 8.34863V13.5986C13.2717 13.9965 13.1137 14.378 12.8324 14.6593C12.5511 14.9406 12.1696 15.0986 11.7717 15.0986H3.52173C3.1239 15.0986 2.74237 14.9406 2.46107 14.6593C2.17976 14.378 2.02173 13.9965 2.02173 13.5986V8.34863ZM7.64673 9.09863C7.14945 9.09863 6.67253 9.29618 6.3209 9.64781C5.96927 9.99944 5.77173 10.4764 5.77173 10.9736C5.77173 11.4709 5.96927 11.9478 6.3209 12.2995C6.67253 12.6511 7.14945 12.8486 7.64673 12.8486C8.14401 12.8486 8.62092 12.6511 8.97255 12.2995C9.32418 11.9478 9.52173 11.4709 9.52173 10.9736C9.52173 10.4764 9.32418 9.99944 8.97255 9.64781C8.62092 9.29618 8.14401 9.09863 7.64673 9.09863Z" fill="#333333"/>
<path d="M8.39673 10.9737C8.39673 11.1726 8.31771 11.3634 8.17706 11.504C8.03641 11.6447 7.84564 11.7237 7.64673 11.7237C7.44782 11.7237 7.25705 11.6447 7.1164 11.504C6.97575 11.3634 6.89673 11.1726 6.89673 10.9737C6.89673 10.7748 6.97575 10.584 7.1164 10.4434C7.25705 10.3027 7.44782 10.2237 7.64673 10.2237C7.84564 10.2237 8.03641 10.3027 8.17706 10.4434C8.31771 10.584 8.39673 10.7748 8.39673 10.9737Z" fill="#333333"/>
</svg>
