<svg width="16" height="16" viewBox="0 0 16 16" fill="none" xmlns="http://www.w3.org/2000/svg">
<path d="M7.32571 3.11982V5.70648C7.32571 5.92066 7.28342 6.13273 7.20125 6.33053C7.11909 6.52832 6.99867 6.70794 6.84691 6.85908C6.69516 7.01021 6.51505 7.12989 6.31692 7.21125C6.1188 7.2926 5.90655 7.33403 5.69238 7.33315H3.11904C2.90544 7.33445 2.69378 7.2926 2.49675 7.21012C2.29971 7.12764 2.12136 7.00622 1.97238 6.85315C1.82142 6.70293 1.70184 6.5242 1.62058 6.32734C1.53932 6.13049 1.49801 5.91945 1.49904 5.70648V3.12648C1.49904 2.69622 1.6695 2.28348 1.97312 1.97861C2.27674 1.67374 2.68878 1.50158 3.11904 1.49982H5.69904C5.91242 1.50002 6.12363 1.54255 6.32046 1.62494C6.51729 1.70734 6.69582 1.82796 6.84571 1.97982C6.99767 2.12825 7.11842 2.30556 7.20085 2.50134C7.28328 2.69711 7.32573 2.9074 7.32571 3.11982ZM14.4924 3.12648V5.70648C14.4889 6.13568 14.3173 6.54642 14.0145 6.85054C13.7116 7.15466 13.3016 7.32793 12.8724 7.33315H10.2857C9.85451 7.33051 9.44111 7.16085 9.13238 6.85982C8.98152 6.70814 8.86206 6.5282 8.78083 6.3303C8.69961 6.13239 8.65823 5.92041 8.65904 5.70648V3.12648C8.65813 2.91294 8.70015 2.70139 8.7826 2.50441C8.86506 2.30743 8.98628 2.12903 9.13904 1.97982C9.28893 1.82796 9.46746 1.70734 9.66429 1.62494C9.86112 1.54255 10.0723 1.50002 10.2857 1.49982H12.8657C13.296 1.5033 13.7078 1.6758 14.0121 1.98011C14.3164 2.28442 14.4889 2.69614 14.4924 3.12648ZM14.4924 10.2932V12.8732C14.4889 13.3024 14.3173 13.7131 14.0145 14.0172C13.7116 14.3213 13.3016 14.4946 12.8724 14.4998H10.2857C9.85176 14.5042 9.43321 14.3392 9.11904 14.0398C8.96759 13.8886 8.84774 13.7087 8.76647 13.5107C8.68521 13.3127 8.64416 13.1005 8.64571 12.8865V10.3065C8.64483 10.0929 8.68687 9.88141 8.76932 9.68443C8.85178 9.48745 8.97297 9.30905 9.12571 9.15982C9.27562 9.00799 9.45416 8.88739 9.65098 8.805C9.8478 8.72261 10.059 8.68006 10.2724 8.67982H12.8524C13.2827 8.6833 13.6944 8.8558 13.9987 9.16011C14.3031 9.46442 14.4756 9.87614 14.479 10.3065L14.4924 10.2932ZM7.32571 10.2998V12.8798C7.32046 13.3101 7.14628 13.7212 6.84072 14.0242C6.53517 14.3273 6.12273 14.4981 5.69238 14.4998H3.11904C2.90605 14.5007 2.695 14.4594 2.49805 14.3783C2.30111 14.2972 2.12217 14.1779 1.97156 14.0273C1.82096 13.8767 1.70166 13.6978 1.62056 13.5008C1.53946 13.3039 1.49816 13.0928 1.49904 12.8798V10.2998C1.50076 9.86946 1.67157 9.45703 1.97463 9.15147C2.27769 8.84591 2.68871 8.67173 3.11904 8.66648H5.69904C6.13132 8.67021 6.5451 8.84241 6.85238 9.14648C7.15644 9.45323 7.32663 9.86791 7.32571 10.2998Z" fill="#FAC1D9"/>
</svg>
