<svg width="19" height="19" viewBox="0 0 19 19" fill="none" xmlns="http://www.w3.org/2000/svg">
<path d="M6.16235 11.3486H7.66235C7.66235 12.1586 8.68985 12.8486 9.91235 12.8486C11.1349 12.8486 12.1624 12.1586 12.1624 11.3486C12.1624 10.5236 11.3824 10.2236 9.73235 9.82607C8.14235 9.42857 6.16235 8.93357 6.16235 6.84857C6.16235 5.50607 7.26485 4.36607 8.78735 3.98357V2.34857H11.0374V3.98357C12.5599 4.36607 13.6624 5.50607 13.6624 6.84857H12.1624C12.1624 6.03857 11.1349 5.34857 9.91235 5.34857C8.68985 5.34857 7.66235 6.03857 7.66235 6.84857C7.66235 7.67357 8.44235 7.97357 10.0924 8.37107C11.6824 8.76857 13.6624 9.26357 13.6624 11.3486C13.6624 12.6911 12.5599 13.8311 11.0374 14.2136V15.8486H8.78735V14.2136C7.26485 13.8311 6.16235 12.6911 6.16235 11.3486Z" fill="#333333"/>
</svg>
