<svg width="19" height="16" viewBox="0 0 19 16" fill="none" xmlns="http://www.w3.org/2000/svg">
<path opacity="0.983" fill-rule="evenodd" clip-rule="evenodd" d="M8.37569 2.48435C8.51542 2.47918 8.65465 2.48439 8.7934 2.49998C9.33239 2.71591 9.86615 2.93987 10.3946 3.17185C10.0896 4.46226 10.4493 5.57685 11.4737 6.5156C10.5159 6.92989 9.55287 7.33614 8.58455 7.73435C6.43791 6.85401 4.30293 5.9582 2.17969 5.04685C4.24787 4.19129 6.31319 3.33714 8.37569 2.48435Z" fill="#FBCCE0"/>
<path opacity="0.991" fill-rule="evenodd" clip-rule="evenodd" d="M1.9011 5.48438C4.02786 6.35044 6.15121 7.22544 8.27115 8.10938C8.30596 10.4009 8.31755 12.6926 8.30596 14.9844C6.22922 14.1512 4.16389 13.2918 2.10996 12.4062C2.01925 12.3457 1.95543 12.2676 1.91851 12.1719C1.9011 9.94272 1.8953 7.71356 1.9011 5.48438Z" fill="#FBCCE0"/>
<path opacity="0.981" fill-rule="evenodd" clip-rule="evenodd" d="M13.6667 0.984208C15.3897 0.871655 16.6023 1.51749 17.3042 2.92171C17.81 4.46596 17.3285 5.68993 15.8597 6.59358C15.0826 6.98068 14.2588 7.09005 13.3882 6.92171C11.9609 6.56218 11.1081 5.72883 10.8298 4.42171C10.6875 2.87406 11.401 1.78552 12.9705 1.15608C13.204 1.08815 13.4361 1.03085 13.6667 0.984208ZM15.1635 2.51546C15.4515 2.49066 15.5618 2.60524 15.4942 2.85921C15.1209 3.70652 14.738 4.55027 14.3455 5.39046C14.2557 5.44818 14.1571 5.4638 14.0496 5.43733C13.6387 5.09974 13.2384 4.75077 12.8487 4.39046C12.7384 4.07274 12.8603 3.96336 13.2142 4.06233C13.4874 4.3128 13.7658 4.55758 14.0496 4.79671C14.3738 4.12696 14.6812 3.44986 14.972 2.76546C15.0113 2.66253 15.0751 2.5792 15.1635 2.51546Z" fill="#FBCCE0"/>
<path opacity="0.99" fill-rule="evenodd" clip-rule="evenodd" d="M11.8915 6.85938C12.2164 7.01553 12.5529 7.15616 12.901 7.28125C13.6876 7.51262 14.4766 7.52825 15.268 7.32812C15.2738 8.94275 15.268 10.5573 15.2506 12.1719C15.1369 12.3719 14.957 12.5021 14.7111 12.5625C12.7562 13.3852 10.7953 14.1925 8.82835 14.9844C8.82254 12.7031 8.82835 10.4218 8.84576 8.14062C9.86155 7.70803 10.8768 7.28094 11.8915 6.85938Z" fill="#FBCCE0"/>
</svg>
