<svg width="16" height="16" viewBox="0 0 16 16" fill="none" xmlns="http://www.w3.org/2000/svg">
<path opacity="0.969" fill-rule="evenodd" clip-rule="evenodd" d="M7.02968 1C7.09333 1 7.157 1 7.22065 1C7.73455 1.10033 8.01649 1.41408 8.06642 1.94126C8.05395 2.02543 8.03578 2.10728 8.01186 2.1868C8.47566 2.19589 8.93947 2.20499 9.40328 2.21408C9.49803 2.2228 9.57532 2.26372 9.63518 2.33686C9.67957 2.67983 9.68865 3.02541 9.66246 3.3736C9.6014 3.55285 9.47863 3.66653 9.29415 3.71464C7.81929 3.74157 6.34602 3.73247 4.87434 3.68735C4.71536 3.60118 4.61987 3.46931 4.58787 3.29175C4.56967 3.00983 4.56967 2.72791 4.58787 2.44599C4.63471 2.30817 4.7302 2.23087 4.87434 2.21408C5.32895 2.20044 5.78367 2.1959 6.23847 2.20044C6.13546 1.55029 6.3992 1.15014 7.02968 1ZM7.02968 1.46381C7.50573 1.48902 7.66943 1.72547 7.52077 2.17316C7.25994 2.2091 7.00076 2.2091 6.74321 2.17316C6.60436 1.8416 6.69985 1.60515 7.02968 1.46381Z" fill="#FAC1D9"/>
<path opacity="0.986" fill-rule="evenodd" clip-rule="evenodd" d="M11.0404 14.9689C8.41213 14.9689 5.78387 14.9689 3.15564 14.9689C2.77726 14.8952 2.54536 14.6678 2.45993 14.2868C2.44174 10.5945 2.44174 6.90224 2.45993 3.20998C2.50331 2.90931 2.66245 2.6956 2.93738 2.56883C3.39929 2.52907 3.86308 2.51543 4.3288 2.52791C4.32427 2.80997 4.3288 3.0919 4.34244 3.37367C4.44628 3.72304 4.67818 3.92768 5.03815 3.98753C6.42957 4.00573 7.821 4.00573 9.21242 3.98753C9.56603 3.9522 9.79793 3.76575 9.90813 3.42824C9.94649 3.12986 9.96013 2.82975 9.94905 2.52791C10.3766 2.52336 10.804 2.52791 11.2313 2.54155C11.5269 2.61885 11.7133 2.80528 11.7906 3.10084C11.8043 5.61083 11.8088 8.12085 11.8043 10.6309C10.7856 10.6012 10.0444 11.0378 9.58073 11.9405C9.21285 12.9642 9.43567 13.8327 10.2492 14.546C10.4998 14.7167 10.7636 14.8576 11.0404 14.9689ZM4.84717 5.0652C5.07916 5.04679 5.16556 5.14683 5.10636 5.36531C4.86537 5.6063 4.62436 5.84732 4.38337 6.08831C4.30152 6.14287 4.21967 6.14287 4.13782 6.08831C4.03325 5.98373 3.92864 5.87913 3.82407 5.77456C3.73343 5.54145 3.81073 5.43688 4.05597 5.4608C4.13269 5.51474 4.20543 5.57386 4.27424 5.63814C4.47487 5.45567 4.66585 5.2647 4.84717 5.0652ZM6.18403 5.3926C7.57548 5.38804 8.9669 5.3926 10.3583 5.40624C10.4929 5.47895 10.5247 5.58352 10.4538 5.71999C10.4151 5.74618 10.3741 5.76891 10.331 5.7882C8.96687 5.8064 7.60273 5.8064 6.2386 5.7882C6.08693 5.74842 6.03692 5.65293 6.08854 5.50173C6.12608 5.46885 6.15789 5.43248 6.18403 5.3926ZM4.90174 7.13869C5.12216 7.17937 5.18128 7.29759 5.07908 7.49337C4.85626 7.71619 4.63347 7.93898 4.41065 8.1618C4.33295 8.23058 4.2511 8.23966 4.1651 8.18908C4.04233 8.06631 3.91956 7.94354 3.79679 7.82076C3.76484 7.58886 3.86033 7.50248 4.08326 7.56158C4.14238 7.6207 4.20147 7.67979 4.26059 7.73892C4.46325 7.52248 4.67696 7.32242 4.90174 7.13869ZM6.18403 7.49337C7.58456 7.48881 8.9851 7.49337 10.3856 7.50701C10.5311 7.62523 10.5311 7.74347 10.3856 7.86169C8.98507 7.87989 7.58454 7.87989 6.18403 7.86169C6.06955 7.78036 6.04682 7.67578 6.11582 7.54794C6.14297 7.53249 6.1657 7.5143 6.18403 7.49337ZM4.87446 9.23947C5.05641 9.22596 5.14281 9.30781 5.13364 9.48501C4.88439 9.76158 4.6252 10.0299 4.35608 10.2899C4.27961 10.3105 4.20685 10.3014 4.13782 10.2626C4.02413 10.1489 3.91047 10.0352 3.79679 9.92154C3.75136 9.7033 3.83777 9.60781 4.05597 9.63507C4.11054 9.68963 4.1651 9.7442 4.21967 9.79877C4.24695 9.81696 4.27424 9.81696 4.30152 9.79877C4.48963 9.60607 4.68061 9.41962 4.87446 9.23947ZM6.21131 9.56686C7.58456 9.56231 8.95781 9.56686 10.331 9.5805C10.489 9.63752 10.53 9.74213 10.4538 9.89426C10.4291 9.92702 10.3973 9.94978 10.3583 9.96246C8.97596 9.98066 7.59365 9.98066 6.21131 9.96246C6.08464 9.90593 6.04371 9.81044 6.08854 9.67599C6.12665 9.63316 6.16758 9.59676 6.21131 9.56686Z" fill="#FAC1D9"/>
<path opacity="0.972" fill-rule="evenodd" clip-rule="evenodd" d="M11.4492 10.876C12.7031 10.9204 13.3943 11.5661 13.5227 12.8131C13.4903 13.6196 13.1174 14.2062 12.4041 14.5728C11.6441 14.8748 10.9439 14.7747 10.3033 14.2727C9.59699 13.5381 9.47422 12.715 9.93497 11.8036C10.2921 11.2544 10.7968 10.9452 11.4492 10.876ZM12.1585 12.1583C12.4034 12.1477 12.4807 12.2569 12.3904 12.4857C12.0767 12.7994 11.7629 13.1132 11.4492 13.4269C11.3582 13.4815 11.2673 13.4815 11.1763 13.4269C11.0445 13.2951 10.9126 13.1632 10.7807 13.0313C10.6901 12.7982 10.7674 12.6936 11.0126 12.7176C11.1036 12.8085 11.1945 12.8995 11.2855 12.9904C11.3037 13.0086 11.3218 13.0086 11.34 12.9904C11.6184 12.7166 11.8912 12.4392 12.1585 12.1583Z" fill="#FAC1D9"/>
</svg>
