<svg width="24" height="24" viewBox="0 0 24 24" fill="none" xmlns="http://www.w3.org/2000/svg">
<path d="M20.3438 17.1565H18.6961C18.5836 17.1565 18.4782 17.2057 18.4078 17.2925C18.2438 17.4917 18.068 17.6839 17.8828 17.8667C17.1256 18.6247 16.2286 19.2288 15.2414 19.6456C14.2188 20.0775 13.1196 20.2991 12.0094 20.2972C10.8868 20.2972 9.79925 20.0768 8.77738 19.6456C7.79026 19.2288 6.89325 18.6247 6.13597 17.8667C5.37733 17.1112 4.77242 16.2158 4.35472 15.23C3.92113 14.2081 3.70316 13.1229 3.70316 12.0003C3.70316 10.8776 3.92347 9.79247 4.35472 8.77059C4.77191 7.78387 5.37191 6.89559 6.13597 6.13387C6.90003 5.37216 7.78831 4.77215 8.77738 4.35497C9.79925 3.92372 10.8868 3.7034 12.0094 3.7034C13.1321 3.7034 14.2196 3.92137 15.2414 4.35497C16.2305 4.77215 17.1188 5.37216 17.8828 6.13387C18.068 6.31903 18.2414 6.51122 18.4078 6.70809C18.4782 6.79481 18.586 6.84403 18.6961 6.84403H20.3438C20.4914 6.84403 20.5828 6.67997 20.5008 6.55575C18.7032 3.762 15.5578 1.91278 11.9836 1.92215C6.368 1.93622 1.86566 6.49481 1.92191 12.1034C1.97816 17.6229 6.47347 22.0784 12.0094 22.0784C15.5743 22.0784 18.7055 20.2315 20.5008 17.4448C20.5805 17.3206 20.4914 17.1565 20.3438 17.1565ZM22.4274 11.8526L19.1016 9.22762C18.9774 9.12919 18.7969 9.21825 18.7969 9.37528V11.1565H11.4375C11.3344 11.1565 11.25 11.2409 11.25 11.344V12.6565C11.25 12.7597 11.3344 12.844 11.4375 12.844H18.7969V14.6253C18.7969 14.7823 18.9797 14.8714 19.1016 14.7729L22.4274 12.1479C22.4498 12.1304 22.4679 12.108 22.4804 12.0824C22.4928 12.0568 22.4993 12.0287 22.4993 12.0003C22.4993 11.9718 22.4928 11.9437 22.4804 11.9182C22.4679 11.8926 22.4498 11.8702 22.4274 11.8526Z" fill="#FAC1D9"/>
</svg>
