<svg width="19" height="18" viewBox="0 0 19 18" fill="none" xmlns="http://www.w3.org/2000/svg">
<g clip-path="url(#clip0_9_401)">
<path opacity="0.97" fill-rule="evenodd" clip-rule="evenodd" d="M9.30057 -0.0175781C9.62558 -0.0175781 9.95063 -0.0175781 10.2756 -0.0175781C10.6623 0.273359 10.6856 0.589764 10.3453 0.931641C10.3105 1.435 10.2989 1.93891 10.3105 2.44336C10.5081 2.43752 10.7055 2.44338 10.9025 2.46094C11.0657 2.49326 11.1876 2.58115 11.2681 2.72461C11.3193 3.54262 11.3367 4.36293 11.3204 5.18555C10.2872 5.18555 9.25415 5.18555 8.22102 5.18555C8.20468 4.37463 8.2221 3.56604 8.27325 2.75977C8.35077 2.60619 8.47266 2.50658 8.63891 2.46094C8.84754 2.44338 9.05649 2.43752 9.26575 2.44336C9.27156 1.95103 9.26575 1.45884 9.24833 0.966797C8.97092 0.749296 8.91287 0.479763 9.07421 0.158203C9.14264 0.0861205 9.21811 0.0275269 9.30057 -0.0175781Z" fill="#333333"/>
<path opacity="0.977" fill-rule="evenodd" clip-rule="evenodd" d="M4.59941 1.49243C5.44689 1.48657 6.29427 1.49243 7.14158 1.51001C7.29829 1.57446 7.40858 1.68579 7.47241 1.84399C7.47945 2.20262 7.49686 2.56003 7.52465 2.91626C7.48579 3.68759 7.11435 4.22077 6.41027 4.51587C6.37559 4.73728 6.36396 4.95996 6.37545 5.18384C6.02721 5.18384 5.67896 5.18384 5.33072 5.18384C5.3365 4.96088 5.33072 4.73823 5.31331 4.51587C4.76779 4.29326 4.41954 3.8948 4.26858 3.32056C4.21536 2.8414 4.20375 2.36093 4.23376 1.87915C4.29241 1.68525 4.41428 1.55634 4.59941 1.49243Z" fill="#333333"/>
<path opacity="0.977" fill-rule="evenodd" clip-rule="evenodd" d="M12.5047 1.49243C13.3522 1.48657 14.1996 1.49243 15.0469 1.51001C15.2107 1.54884 15.321 1.64845 15.3777 1.80884C15.4581 2.36234 15.4465 2.91313 15.3429 3.46118C15.1583 3.96982 14.8158 4.32138 14.3156 4.51587C14.2809 4.73728 14.2692 4.95996 14.2807 5.18384C13.9441 5.18384 13.6075 5.18384 13.2708 5.18384C13.2823 4.95996 13.2707 4.73728 13.236 4.51587C12.6647 4.2966 12.3107 3.88643 12.1739 3.2854C12.122 2.8413 12.1104 2.39599 12.139 1.94946C12.1679 1.71572 12.2898 1.56338 12.5047 1.49243Z" fill="#333333"/>
<path opacity="0.992" fill-rule="evenodd" clip-rule="evenodd" d="M4.00765 6.17017C7.86155 6.1643 11.7154 6.17017 15.5693 6.18775C15.799 6.26731 15.9442 6.42551 16.0046 6.66236C16.0278 8.8186 16.0278 10.9749 16.0046 13.1311C15.7971 13.8189 15.3502 14.0592 14.6639 13.8518C14.3515 13.6956 14.1716 13.4436 14.1241 13.096C14.1125 12.5217 14.1009 11.9475 14.0893 11.3733C13.9656 10.9144 13.6696 10.6683 13.2013 10.635C12.6681 10.6635 12.3605 10.9447 12.2784 11.4788C12.2825 11.9165 12.2476 12.3501 12.1739 12.7795C11.8171 13.6427 11.1728 14.0235 10.2412 13.9221C9.43052 13.8535 8.91394 13.4258 8.69152 12.6389C8.70565 11.959 8.4677 11.3906 7.97762 10.9338C7.38268 10.5479 6.77904 10.5362 6.16675 10.8987C5.81712 11.1464 5.59076 11.4804 5.48768 11.9006C5.44875 12.3332 5.42552 12.7668 5.41803 13.2014C5.20783 13.7911 4.79576 14.0196 4.18177 13.887C3.87088 13.7724 3.66774 13.5555 3.57234 13.2366C3.54913 11.0217 3.54913 8.80689 3.57234 6.59205C3.66877 6.395 3.81387 6.25437 4.00765 6.17017Z" fill="#333333"/>
<path opacity="0.983" fill-rule="evenodd" clip-rule="evenodd" d="M13.2012 17.9805C10.926 17.9805 8.65079 17.9805 6.37561 17.9805C6.23987 17.9063 6.16441 17.789 6.14926 17.6289C6.12603 17.3594 6.12603 17.0899 6.14926 16.8203C6.17548 16.6182 6.28573 16.4951 6.48009 16.4512C7.11608 16.5147 7.64423 16.3096 8.06459 15.8359C8.21193 15.6242 8.30478 15.3898 8.34319 15.1328C8.35478 14.7461 8.36641 14.3594 8.37801 13.9727C9.10998 14.7404 9.998 15.0334 11.0421 14.8516C11.0443 15.621 11.4041 16.1308 12.1216 16.3809C12.4449 16.4226 12.7699 16.446 13.0967 16.4512C13.2498 16.4768 13.3485 16.5647 13.3927 16.7148C13.4159 17.043 13.4159 17.3711 13.3927 17.6992C13.3494 17.8074 13.2856 17.9011 13.2012 17.9805Z" fill="#333333"/>
</g>
<defs>
<clipPath id="clip0_9_401">
<rect width="17.83" height="18" fill="white" transform="translate(0.890625 -0.000976562)"/>
</clipPath>
</defs>
</svg>
