<svg width="40" height="41" viewBox="0 0 40 41" fill="none" xmlns="http://www.w3.org/2000/svg">
<path d="M18.3255 7.98396V14.4506C18.3255 14.9861 18.2198 15.5163 18.0144 16.0107C17.8089 16.5052 17.5079 16.9543 17.1285 17.3321C16.7491 17.7099 16.2988 18.0092 15.8035 18.2125C15.3082 18.4159 14.7776 18.5195 14.2422 18.5173H7.80884C7.27484 18.5205 6.74568 18.4159 6.25309 18.2097C5.7605 18.0035 5.31462 17.7 4.94217 17.3173C4.56478 16.9417 4.26582 16.4949 4.06267 16.0028C3.85953 15.5106 3.75625 14.983 3.75884 14.4506V8.00063C3.75883 6.92496 4.18499 5.89311 4.94404 5.13094C5.70308 4.36877 6.73318 3.93837 7.80884 3.93396H14.2588C14.7923 3.93447 15.3203 4.0408 15.8124 4.24678C16.3045 4.45276 16.7508 4.75431 17.1255 5.13396C17.5054 5.50503 17.8073 5.94832 18.0133 6.43776C18.2194 6.9272 18.3256 7.45291 18.3255 7.98396ZM36.2422 8.00063V14.4506C36.2335 15.5236 35.8046 16.5505 35.0474 17.3108C34.2902 18.0711 33.2651 18.5042 32.1922 18.5173H25.7255C24.6475 18.5107 23.614 18.0866 22.8422 17.334C22.465 16.9548 22.1664 16.5049 21.9633 16.0102C21.7603 15.5154 21.6568 14.9854 21.6588 14.4506V8.00063C21.6565 7.46677 21.7616 6.9379 21.9677 6.44544C22.1739 5.95298 22.4769 5.50699 22.8588 5.13396C23.2336 4.75431 23.6799 4.45276 24.172 4.24678C24.664 4.0408 25.1921 3.93447 25.7255 3.93396H32.1755C33.2514 3.94267 34.2807 4.37392 35.0414 5.13469C35.8022 5.89546 36.2335 6.92477 36.2422 8.00063ZM36.2422 25.9173V32.3673C36.2335 33.4403 35.8046 34.4671 35.0474 35.2274C34.2902 35.9878 33.2651 36.4209 32.1922 36.434H25.7255C24.6406 36.445 23.5943 36.0324 22.8088 35.284C22.4302 34.9059 22.1306 34.4562 21.9274 33.9612C21.7243 33.4662 21.6216 32.9357 21.6255 32.4006V25.9506C21.6233 25.4168 21.7284 24.8879 21.9345 24.3955C22.1407 23.9031 22.4437 23.4571 22.8255 23.084C23.2003 22.7044 23.6466 22.4029 24.1387 22.1969C24.6307 21.9909 25.1587 21.8846 25.6922 21.884H32.1422C33.218 21.8927 34.2473 22.3239 35.0081 23.0847C35.7689 23.8455 36.2001 24.8748 36.2088 25.9506L36.2422 25.9173ZM18.3255 25.934V32.384C18.3124 33.4598 17.8769 34.4873 17.113 35.245C16.3491 36.0026 15.3181 36.4297 14.2422 36.434H7.80884C7.27636 36.4362 6.74873 36.3329 6.25636 36.1302C5.764 35.9274 5.31665 35.6292 4.94014 35.2527C4.56362 34.8761 4.26538 34.4288 4.06263 33.9364C3.85988 33.4441 3.75663 32.9164 3.75884 32.384V25.934C3.76313 24.8581 4.19016 23.827 4.94781 23.0631C5.70546 22.2992 6.73302 21.8637 7.80884 21.8506H14.2588C15.3395 21.8599 16.374 22.2905 17.1422 23.0506C17.9023 23.8175 18.3278 24.8542 18.3255 25.934Z" fill="#333333"/>
</svg>
